<?xml version="1.0" standalone="no"?>
<!DOCTYPE svg PUBLIC "-//W3C//DTD SVG 20010904//EN"
 "http://www.w3.org/TR/2001/REC-SVG-20010904/DTD/svg10.dtd">
<svg version="1.0" xmlns="http://www.w3.org/2000/svg"
 width="700.000000pt" height="700.000000pt" viewBox="0 0 700.000000 700.000000"
 preserveAspectRatio="xMidYMid meet">
<metadata>
Created by potrace 1.14, written by Peter Selinger 2001-2017
</metadata>
<g transform="translate(0.000000,700.000000) scale(0.100000,-0.100000)"
fill="#000000" stroke="none">
<path d="M4838 6995 c-2 -1 -30 -5 -63 -9 -276 -29 -573 -130 -813 -275 -90
-55 -222 -152 -291 -216 -25 -22 -745 -740 -1601 -1595 -958 -958 -1585 -1592
-1631 -1650 -119 -149 -204 -291 -270 -444 -17 -39 -34 -80 -40 -91 -23 -50
-85 -278 -95 -350 -3 -27 -8 -53 -10 -57 -10 -16 -19 -168 -19 -318 1 -148 5
-208 20 -305 3 -16 7 -42 9 -57 26 -166 135 -461 226 -614 30 -50 130 -203
150 -228 248 -314 566 -544 934 -676 66 -23 271 -76 331 -84 107 -16 205 -21
370 -20 148 2 205 7 320 28 356 67 685 226 945 455 128 113 3172 3162 3236
3241 110 137 191 264 258 405 61 127 132 334 150 440 3 17 10 55 16 85 18 91
25 187 25 350 -1 241 -27 408 -100 625 -158 475 -496 877 -942 1123 -171 93
-422 183 -578 207 -22 3 -69 11 -105 17 -57 9 -423 21 -432 13z"/>
</g>
</svg>
